<svg width="32" height="32" viewBox="0 0 32 32" fill="none" xmlns="http://www.w3.org/2000/svg">
<path d="M29.3334 3.66667H2.66675C2.12008 3.66667 1.66675 3.21334 1.66675 2.66667C1.66675 2.12001 2.12008 1.66667 2.66675 1.66667H29.3334C29.8801 1.66667 30.3334 2.12001 30.3334 2.66667C30.3334 3.21334 29.8801 3.66667 29.3334 3.66667Z" fill="#07C2B0"/>
<path d="M22.2268 29.7867C22.0534 30.1333 21.6934 30.3333 21.3334 30.3333C21.1868 30.3333 21.0268 30.2933 20.8934 30.2267L16.0001 27.7867L11.1068 30.2267C10.9734 30.2933 10.8134 30.3333 10.6668 30.3333C10.3068 30.3333 9.94677 30.1333 9.77343 29.7867C9.5201 29.28 9.7201 28.68 10.2268 28.44L15.0001 26.0533V22.6667H17.0001V26.0533L21.7734 28.44C22.2801 28.68 22.4801 29.28 22.2268 29.7867Z" fill="#07C2B0"/>
<path d="M4 2.66667V18.8C4 21.3333 5.33333 22.6667 7.86667 22.6667H24.1333C26.6667 22.6667 28 21.3333 28 18.8V2.66667H4ZM22.64 11.44L18.44 14.9467C18.0533 15.2667 17.56 15.4 17.0933 15.32C16.6133 15.24 16.2 14.9467 15.9467 14.52L14.5467 12.1867L10.64 15.44C10.4533 15.6 10.2267 15.6667 10 15.6667C9.72 15.6667 9.42667 15.5467 9.22667 15.3067C8.86667 14.88 8.93333 14.2533 9.36 13.8933L13.56 10.3867C13.9467 10.0667 14.44 9.93334 14.9067 10.0133C15.3867 10.0933 15.8 10.3867 16.0533 10.8133L17.4533 13.1467L21.36 9.89334C21.7867 9.53334 22.4133 9.60001 22.7733 10.0267C23.12 10.4533 23.0667 11.08 22.64 11.44Z" fill="#07C2B0"/>
</svg>
